<?xml version="1.0" encoding="UTF-8" standalone="no"?>
<svg
   version="1.2"
   viewBox="0 0 600 600"
   width="600"
   height="600"
   id="svg51"
   sodipodi:docname="Certificado.svg"
   inkscape:export-filename="Certificado2.png"
   inkscape:export-xdpi="96"
   inkscape:export-ydpi="96"
   inkscape:version="1.2.1 (9c6d41e410, 2022-07-14)"
   xmlns:inkscape="http://www.inkscape.org/namespaces/inkscape"
   xmlns:sodipodi="http://sodipodi.sourceforge.net/DTD/sodipodi-0.dtd"
   xmlns="http://www.w3.org/2000/svg"
   xmlns:svg="http://www.w3.org/2000/svg">
  <defs
     id="defs55" />
  <sodipodi:namedview
     id="namedview53"
     pagecolor="#ffffff"
     bordercolor="#000000"
     borderopacity="0.25"
     inkscape:showpageshadow="2"
     inkscape:pageopacity="0.0"
     inkscape:pagecheckerboard="0"
     inkscape:deskcolor="#d1d1d1"
     showgrid="false"
     inkscape:zoom="1.7116667"
     inkscape:cx="299.70789"
     inkscape:cy="299.70789"
     inkscape:window-width="3440"
     inkscape:window-height="1342"
     inkscape:window-x="-10"
     inkscape:window-y="-10"
     inkscape:window-maximized="1"
     inkscape:current-layer="svg51" />
  <title
     id="title2">pngwing</title>
  <style
     id="style4">
		tspan { white-space:pre } 
		.s0 { opacity: 1;fill: #03a1e1 } 
		.s1 { fill: #eaebec } 
		.s2 { fill: #eb574f } 
		.s3 { fill: #ebcece } 
		.s4 { fill: #eeb2ae } 
		.s5 { fill: #ed2829 } 
		.s6 { fill: #ed4a4d } 
		.s7 { fill: #ed4e4f } 
		.s8 { fill: #ed2728 } 
		.s9 { fill: #ed2427 } 
		.s10 { fill: #ed2326 } 
		.s11 { fill: #ed5054 } 
		.s12 { fill: #ec7169 } 
		.s13 { fill: #ebe9ea } 
		.s14 { fill: #ec7275 } 
		.s15 { fill: #ec6a6d } 
		.s16 { fill: #ec6d70 } 
		.s17 { fill: #0c0c0d } 
		.t18 { font-size: 27px;fill: #000000;font-weight: 700;font-family: &quot;LiberationSans-Bold&quot;, &quot;Liberation Sans&quot; } 
	</style>
  <g
     id="g1481">
    <path
       id="path1479"
       fill-rule="evenodd"
       class="s0"
       d="m273.5 2.5q155.8-8 256.5 110 94.8 125.4 51 277-49.8 141.7-191.5 191.5-156.3 44.8-283-56-116.8-104.5-102.5-261.5 21.2-147.6 148.5-223.5 56.9-31.1 121-37.5z" />
  </g>
  <g
     id="g1485">
    <path
       id="path1483"
       fill-rule="evenodd"
       class="s1"
       d="m281.5 42.5q153.3-3.3 236.5 124 71 127.3 4 257-81.9 134.4-240.5 130.5-136.4-13.6-206.5-130.5-64.7-125.1 0-250 70.4-116.8 206.5-131z" />
  </g>
  <g
     id="g1489">
    <path
       id="path1487"
       fill-rule="evenodd"
       class="s2"
       d="m501.5 226.5q-1.5 1-3 2-2.6 1.7-2 5-3-7 5-7z" />
  </g>
  <g
     id="g1493">
    <path
       id="path1491"
       fill-rule="evenodd"
       class="s3"
       d="m498.5 228.5q-0.2 2.5 0.5 5 1.2-3.6 2.5 0.5-2.6 1-5-0.5-0.6-3.3 2-5z" />
  </g>
  <g
     id="g1497">
    <path
       id="path1495"
       fill-rule="evenodd"
       class="s4"
       d="m501.5 226.5q1.5 0.5 2 2 0.2 2.5-0.5 5-1.2-2.3-3.5-3.5 3.6-1.6-1-1.5 1.5-1 3-2z" />
  </g>
  <g
     id="g1501">
    <path
       id="path1499"
       fill-rule="evenodd"
       class="s5"
       d="m272.5 230.5q6.6-1.3 10.5 4 14.6 23.4 29.5 46.5-11.8 3.5-16-7.5-14-1-28-2-2.3-3.9-5-7.5 13-0.5 26-1-6.2-10.6-13.5-20.5-12.6 18.7-24.5 38-5.9 1.7-12 0.5 16.2-25.5 33-50.5z" />
  </g>
  <g
     id="g1505">
    <path
       id="path1503"
       fill-rule="evenodd"
       class="s6"
       d="m328.5 231.5q19.8-2 40 0-0.2 0.9-1 1-19.2-1.5-39-1z" />
  </g>
  <g
     id="g1509">
    <path
       id="path1507"
       fill-rule="evenodd"
       class="s7"
       d="m447.5 231.5q20.3-2 41 0-0.2 0.9-1 1-19.7-1.5-40-1z" />
  </g>
  <g
     id="g1513">
    <path
       id="path1511"
       fill-rule="evenodd"
       class="s8"
       d="m112.5 230.5q19-0.3 38 0.5 25 6 21.5 31.5-4.2 14.2-18.5 18.5-21.5 1-43 0-22.2-8.8-17.5-32.5 5.3-14 19.5-18z" />
  </g>
  <g
     id="g1517">
    <path
       id="path1515"
       fill-rule="evenodd"
       class="s9"
       d="m188.5 239.5q-1.5 20.7-1 42-4.5 0-9 0 0-25.5 0-51 23.5-0.3 47 0.5 17.3 6.9 11.5 24.5-6.6 10.9-19.5 10.5 9 7.5 18 15-7 1-14 0-14-12-28-24 16.1-0.1 32-2 5.3-6.1 1-13-2-1-4-2-17-0.8-34-0.5z" />
  </g>
  <g
     id="g1521">
    <path
       id="path1519"
       fill-rule="evenodd"
       class="s10"
       d="m328.5 231.5q19.8-0.5 39 1-1.4 3.6-4 6.5-16.5 0.5-33 1-21.4 10.2-7 29 3.5 3 8 3.5 18.5 1 37 2-1.7 3.4-4 6.5-19 1-38 0-22.3-8.8-17.5-32.5 4.9-14.2 19.5-17z" />
  </g>
  <g
     id="g1525">
    <path
       id="path1523"
       fill-rule="evenodd"
       class="s8"
       d="m374.5 231.5q4.5 0 9 0-0.5 20.8 1 41 22.5-0.5 45 1-2.2 4-5 7.5-24 1-48 0-0.8-0.8-1.5-1.5-0.8-24-0.5-48z" />
  </g>
  <g
     id="g1529">
    <path
       id="path1527"
       fill-rule="evenodd"
       class="s11"
       d="m374.5 231.5q4.7-1.5 10-1 0 21 0 42-1.5-20.2-1-41-4.5 0-9 0z" />
  </g>
  <g
     id="g1533">
    <path
       id="path1531"
       fill-rule="evenodd"
       class="s5"
       d="m447.5 231.5q20.3-0.5 40 1-1.7 3.4-4 6.5-16.5 0.5-33 1-8.1 2.8-12 10.5 23.5 1 47 2-2.2 4-5 7.5-21 0.3-42 1.5 3.3 9.3 13 11 18.5 1 37 2-2.2 3.1-4 6.5-19.5 1-39 0-19.3-8.4-17.5-29.5 4-15.7 19.5-20z" />
  </g>
  <g
     id="g1537">
    <path
       id="path1535"
       fill-rule="evenodd"
       class="s12"
       d="m498.5 228.5q4.6-0.1 1 1.5 2.3 1.2 3.5 3.5 0.7-2.5 0.5-5 3.7 2.9 0 6.5-4.6 3.4-7-1.5 2.4 1.5 5 0.5-1.3-4.1-2.5-0.5-0.7-2.5-0.5-5z" />
  </g>
  <g
     id="g1541">
    <path
       id="path1539"
       fill-rule="evenodd"
       class="s13"
       d="m114.5 239.5q18-0.3 36 0.5 22.4 11 6 30-2.4 1.3-5 2-19.5 1-39 0-15.3-8.4-8.5-24.5 4.3-5.6 10.5-8z" />
  </g>
  <g
     id="g1545">
    <path
       id="path1543"
       fill-rule="evenodd"
       class="s14"
       d="m188.5 239.5q0 21.5 0 43-5.3 0.5-10-1 4.5 0 9 0-0.5-21.3 1-42z" />
  </g>
  <g
     id="g1549">
    <path
       id="path1547"
       fill-rule="evenodd"
       class="s15"
       d="m331.5 272.5q19-0.5 38 1-0.2 0.9-1 1-18.5-1-37-2z" />
  </g>
  <g
     id="g1553">
    <path
       id="path1551"
       fill-rule="evenodd"
       class="s16"
       d="m451.5 272.5q19-0.5 38 1-0.2 0.9-1 1-18.5-1-37-2z" />
  </g>
  <g
     id="g1557">
    <path
       id="path1555"
       fill-rule="evenodd"
       class="s17"
       d="m92.5 307.5q199 0 398 0 0 1.5 0 3-199 0-398 0 0-1.5 0-3z" />
  </g>
  <text
     id="Oracle Next Education Back-ends"
     x="82.375847"
     y="356.96204"
     style="font-size:18.6667px"><tspan
       x="82.375847"
       y="356.96204"
       class="t18"
       id="tspan46"
       style="font-size:18.6667px">Python, Data Science en OCI y Oracle Analytics 
</tspan></text>
  <text
     xml:space="preserve"
     style="font-size:18.6667px;fill:#26dcf6;fill-opacity:0;stroke-width:1.357"
     x="273.41772"
     y="390.84714"
     id="text319"><tspan
       sodipodi:role="line"
       id="tspan317"
       x="273.41772"
       y="390.84714" /></text>
</svg>
